<?xml version="1.0" encoding="UTF-8" standalone="no"?>
<!-- Created with Inkscape (http://www.inkscape.org/) -->

<!-- This logo was designed by FLARE145 (http://flare145.com/) -->

<svg
   width="10in"
   height="5.6726055in"
   viewBox="0 0 253.99999 144.08418"
   version="1.1"
   id="svg1"
   inkscape:version="1.3.2 (091e20e, 2023-11-25, custom)"
   sodipodi:docname="kiwifruitDevLogoFlat.svg"
   xmlns:inkscape="http://www.inkscape.org/namespaces/inkscape"
   xmlns:sodipodi="http://sodipodi.sourceforge.net/DTD/sodipodi-0.dtd"
   xmlns="http://www.w3.org/2000/svg"
   xmlns:svg="http://www.w3.org/2000/svg"
   xmlns:rdf="http://www.w3.org/1999/02/22-rdf-syntax-ns#"
   xmlns:cc="http://creativecommons.org/ns#"
   xmlns:dc="http://purl.org/dc/elements/1.1/">
  <title
     id="title1">KiwifruitDevLogo</title>
  <sodipodi:namedview
     id="namedview1"
     pagecolor="#ffffff"
     bordercolor="#000000"
     borderopacity="0.25"
     inkscape:showpageshadow="2"
     inkscape:pageopacity="0.0"
     inkscape:pagecheckerboard="0"
     inkscape:deskcolor="#d1d1d1"
     inkscape:document-units="mm"
     inkscape:zoom="0.51717104"
     inkscape:cx="518.20381"
     inkscape:cy="291.00624"
     inkscape:window-width="1920"
     inkscape:window-height="1017"
     inkscape:window-x="1912"
     inkscape:window-y="-8"
     inkscape:window-maximized="1"
     inkscape:current-layer="layer1" />
  <defs
     id="defs1" />
  <g
     inkscape:label="Layer 1"
     inkscape:groupmode="layer"
     id="layer1"
     transform="translate(-31.485406,-150.01857)">
    <path
       id="path19"
       style="fill:#98d36b;fill-opacity:1;stroke:none;stroke-width:2.64619;stroke-linecap:square;stroke-linejoin:round;paint-order:stroke fill markers"
       inkscape:transform-center-x="-0.8923836"
       inkscape:transform-center-y="0.15142547"
       d="m 88.747265,150.05504 c -5.705087,0.81806 -8.81549,15.33224 -4.860533,22.67785 3.954913,7.34554 14.097117,5.89139 15.847291,-2.27222 1.640817,-7.65343 -4.43549,-19.61029 -9.902378,-20.40098 -0.364463,-0.0526 -0.727809,-0.0553 -1.08438,-0.005 z m 28.931915,17.79057 c -0.29301,-0.009 -0.58314,-4.8e-4 -0.87053,0.0256 -8.0461,0.72155 -13.91488,14.52512 -23.283372,15.87169 -10.706817,1.53854 -21.573773,-13.82547 -30.080216,-7.11761 -8.50642,6.70778 3.786276,20.94802 -0.240585,31.02745 -4.026749,10.07933 -22.712696,11.84509 -21.180862,22.59531 1.531833,10.75014 19.959976,7.18126 26.639955,15.72179 6.680069,8.54044 -1.140151,25.67283 8.898191,29.71526 10.038323,4.04231 16.174863,-13.76562 26.881699,-15.30452 10.70689,-1.53858 21.57378,13.82311 30.08022,7.1153 5.53873,-4.48343 3.11265,-14.70472 1.10414,-19.13299 -2.00853,-4.42826 -4.69693,-6.80883 -6.74454,-6.52952 -2.04762,0.27931 -3.24983,0.90488 -3.467,3.83776 -0.21749,2.93291 1.19958,5.18043 -1.96304,7.67434 -5.85712,4.61862 -13.33683,-5.96086 -20.70899,-4.9012 -7.372111,1.05916 -11.59705,13.32148 -18.508843,10.53812 -6.911838,-2.78336 -1.527883,-14.57628 -6.127386,-20.45678 -4.599458,-5.88048 -17.289097,-3.4256 -18.343808,-10.82754 -1.054755,-7.40201 11.812454,-8.61778 14.585088,-15.55788 2.772589,-6.94004 -5.690902,-16.74591 0.166208,-21.36451 5.857061,-4.6186 13.336918,5.96081 20.708988,4.90122 6.450113,-0.92696 10.491523,-10.42926 16.030923,-10.92748 h 0.001 c 0.79067,-0.0729 1.61559,0.0412 2.47908,0.38819 1.63849,0.65984 1.53964,2.30249 3.12529,3.31124 1.58561,1.00877 3.73722,1.4455 5.68922,0.63575 1.95203,-0.80971 2.46051,-1.85864 3.10204,-4.94419 0.64156,-3.08558 1.67935,-12.85517 -5.24523,-15.70086 -0.93836,-0.38561 -1.84868,-0.56695 -2.7278,-0.59392 z m 33.24735,7.48026 c -0.73798,0.005 -1.5183,0.0751 -2.32451,0.20219 -5.37475,0.84737 -11.89473,4.29388 -14.61878,8.73897 -4.35852,7.11223 1.96535,15.20116 9.88146,12.64064 7.91632,-2.56051 15.66612,-15.20308 12.10832,-19.75477 -1.0006,-1.28019 -2.8324,-1.84149 -5.04649,-1.82705 z m 48.2276,6.89446 v 0.001 c -5.35012,-0.0241 -10.87593,3.55287 -11.57601,11.24244 v 10e-4 c 0.18712,3.1672 0.0668,4.6073 0.1941,6.91424 -0.16059,-0.0158 -0.31767,-0.0328 -0.48117,-0.0477 -4.51626,0 -4.53358,9.03418 0,9.03418 0.24042,-0.004 0.46329,-0.009 0.70084,-0.0157 -0.0556,3.11018 -0.26479,6.59474 -0.70084,11.38889 -0.18016,1.92765 0.33801,4.32255 4.36891,4.51649 4.3243,0 3.79472,-4.51649 3.79472,-4.51649 -0.38785,-3.80007 -0.57169,-7.57895 -0.61832,-11.361 1.71973,-0.0157 2.84045,0.19365 4.77337,0.60553 1.92848,0.43097 3.4663,-1.2341 3.49837,-3.91563 0.0484,-4.04209 -2.01791,-5.21677 -3.63318,-4.86634 -1.61528,0.35041 -2.69197,0.30018 -4.54324,0.0594 0.10818,-3.3433 -0.14619,-3.92952 0.0709,-7.32219 0.11043,-6.2257 7.96851,-6.00027 7.8754,-1.21107 0,0 -0.59734,4.29507 3.3624,4.3724 3.81651,0.0744 3.43562,-4.51652 3.43562,-4.51652 0.005,-6.71415 -5.17179,-10.33867 -10.52187,-10.36263 z m -22.13739,5.46839 c -0.17678,-0.004 -0.35624,-0.002 -0.53813,0.009 -2.79568,0.14012 -4.99434,1.92097 -4.82334,5.3324 0.17093,3.41145 1.61626,5.00961 5.33241,4.82334 3.71615,-0.18623 5.05386,-1.8737 4.8803,-5.33589 -0.16284,-3.24585 -2.19963,-4.77028 -4.85124,-4.82799 z m -136.531945,3.48209 c -0.721181,0.0202 -1.424479,0.0726 -2.099027,0.16036 -3.237655,0.41829 -5.821911,1.61946 -6.627154,3.63319 -2.147364,5.36978 8.815807,15.32926 17.129255,15.56255 8.313403,0.23429 12.130734,-9.3109 5.964671,-14.914 -2.89035,-2.62647 -7.672601,-4.1135 -12.159469,-4.39914 -0.747811,-0.0477 -1.487097,-0.0623 -2.208276,-0.043 z m 78.135815,5.13716 c -0.50119,0.0135 -1.02104,0.0911 -1.54929,0.23013 -2.70687,0.71305 -4.49168,2.90805 -3.62157,6.21107 0.8701,3.30302 2.61416,4.5694 6.21223,3.62158 3.59804,-0.94783 4.55926,-2.87398 3.67619,-6.22619 -0.71747,-2.72365 -2.54582,-3.89214 -4.71756,-3.83659 z m 145.07796,2.03975 c -2.12762,-0.0841 -4.02749,1.05442 -4.79892,3.72038 -0.94953,3.28107 -0.10369,5.26275 3.47047,6.29708 3.57417,1.03429 5.38809,-0.12415 6.35171,-3.45422 0.96365,-3.32995 -0.7265,-5.50349 -3.52511,-6.31335 -0.50418,-0.14596 -1.00717,-0.23048 -1.49815,-0.24989 z m -86.10419,1.41099 v 0.001 c -0.17813,-0.002 -0.35859,-6.8e-4 -0.54045,0.009 -2.85275,0.14304 -4.80135,1.70974 -4.17248,4.61298 1.65146,7.62388 1.63245,9.15428 0.87401,17.4419 -0.27592,3.01511 1.76356,4.37295 4.67341,4.2271 2.96683,-0.14866 4.9672,-1.73754 4.22711,-4.67341 -1.96264,-7.78551 -2.91877,-9.18679 -0.87401,-17.4419 0.66958,-2.70325 -1.51441,-4.1285 -4.18759,-4.17596 z m -88.915688,0.15564 c -0.461019,-0.0157 -0.964554,0.0313 -1.510924,0.13944 -2.914013,0.57701 -4.917709,2.56703 -3.692474,5.27314 5.898895,13.02887 6.025215,24.68053 7.247799,36.59347 0.29742,2.89825 2.554659,3.97721 5.412602,3.41121 2.97024,-0.58711 4.027195,-2.31061 3.461183,-5.16853 l -2.604605,-13.14739 14.508377,9.86868 c 2.78181,1.8923 5.06241,1.48793 6.91308,-1.32148 1.85061,-2.80969 1.72806,-5.94234 -1.46909,-6.94445 -7.81562,-2.44967 -13.48665,-5.68344 -18.057897,-9.31894 l 7.734777,-11.55509 c 1.65243,-2.46856 1.29124,-4.49704 -1.17736,-6.14947 -1.88233,-1.26004 -5.682048,-1.65347 -6.086705,1.28895 -0.706687,5.13866 -2.851159,7.44911 -5.340543,9.10507 l -1.66783,-8.41934 c -0.468824,-2.36767 -1.67259,-3.58987 -3.67039,-3.6553 z m 121.466848,0.48814 v 0.001 c -2.6486,0.0157 -4.6554,1.45188 -4.14227,4.29799 1.56072,8.65703 -0.78651,12.40103 -1.03789,16.36451 0,3.12206 1.20441,4.48434 4.11207,4.66876 3.02163,0.19163 4.48435,-1.20328 4.66875,-4.11089 l 0.41377,-6.53184 c 0.15901,-2.50855 1.6869,-4.99039 3.53323,-6.13203 1.52508,-0.943 4.0481,-0.33971 5.30916,-0.31382 2.62258,0.16643 4.14625,-1.29453 4.29451,-3.63204 0.14822,-2.33746 -1.30249,-4.14517 -5.86703,-4.37122 -3.66647,-0.18151 -6.24877,1.95041 -7.3373,3.77035 0.056,-2.68681 -1.64265,-3.88256 -3.41003,-3.99466 -0.18173,-0.0112 -0.36039,-0.0157 -0.53697,-0.0157 z m -42.70458,0.63575 c -0.35201,-1.8e-4 -0.72966,0.027 -1.1332,0.0803 -2.26544,0.29898 -3.65269,1.5763 -4.08996,3.93886 l -2.30126,14.01675 c -2.9551,-6.23651 -2.40138,-6.42402 -5.40563,-12.59647 -0.93695,-2.29648 -3.65029,-3.20527 -5.46258,-2.96606 -1.98226,0.26157 -3.69366,1.69665 -4.18758,4.06673 l -2.7743,14.36774 c -0.75315,-3.64893 -3.08592,-8.95871 -5.58113,-13.49489 -1.19766,-2.08921 -2.69969,-2.98608 -4.96514,-2.68713 -3.0017,0.39615 -5.48487,2.47931 -3.76221,5.10692 0.73681,1.12385 6.78292,6.32751 10.29755,17.01768 1.17092,2.32324 2.80845,2.184 5.18713,1.87007 2.32205,-0.30646 4.20301,-0.57514 4.5688,-3.04277 0.54536,-5.4828 1.32675,-9.52116 2.83357,-9.85938 1.50678,-0.33817 2.87256,2.58556 5.64738,8.62505 1.17839,2.37983 2.63167,2.15063 4.78383,1.86659 1.98223,-0.26157 3.82881,-0.35297 4.30033,-2.89285 2.3606,-16.80218 5.03832,-15.41303 5.43816,-19.46653 0.26007,-2.63648 -0.92964,-3.94911 -3.39376,-3.95051 z m 64.81525,3.30777 c -2.10614,-0.0157 -3.59463,1.13448 -3.69595,3.54603 -0.24855,5.91378 -1.54351,6.61291 -2.90448,12.4082 0,0 -2.62987,7.45041 10.13599,10.43818 12.76584,2.98777 13.85519,-4.82334 13.85519,-4.82334 1.14918,-7.15302 0.80286,-7.54767 2.90446,-12.40821 1.17898,-2.7266 -0.37578,-4.66472 -3.26825,-5.3417 -2.8924,-0.67693 -4.2056,0.56556 -5.24174,3.34961 -1.45932,3.92109 -1.54802,4.72697 -2.16295,9.23874 -0.81611,3.48704 -7.68766,1.43566 -6.97002,-1.63064 1.4759,-4.13386 1.80177,-4.84374 2.16178,-9.23873 0.24243,-2.96068 -0.37461,-4.66475 -3.26708,-5.34171 -0.54232,-0.12685 -1.06092,-0.19275 -1.54695,-0.19634 z m 48.02187,0.44748 c -1.66757,-0.0234 -2.81757,1.0194 -3.77848,2.93468 l -4.56183,9.08995 c -2.29615,-0.54329 -4.57682,-0.47166 -5.44747,1.88634 -0.89039,2.41159 0.4402,3.75587 2.50466,4.76173 l -2.25129,5.23131 c -2.98095,6.9265 -2.4263,12.01343 5.2371,14.84311 2.89389,1.06847 4.96249,0.24915 5.93214,-2.37682 0.98929,-2.67951 -0.90272,-3.36609 -2.96374,-5.66131 -1.62616,-1.81092 -0.35686,-5.61649 1.59809,-9.126 l 3.12647,1.15412 c 2.84029,1.04875 4.45691,0.79312 5.44628,-1.88634 1.02901,-2.78669 -0.16081,-4.01751 -3.00091,-5.06624 l -2.30359,-0.85079 4.56183,-9.08996 c 1.28126,-2.55284 0.54007,-4.42892 -2.24661,-5.45793 -0.68328,-0.25228 -1.29678,-0.37803 -1.85265,-0.38585 z m -158.09634,3.19387 c -0.65444,-0.0243 -1.35518,0.0596 -2.05951,0.24521 -2.76211,0.72761 -4.34692,2.66279 -3.13342,5.37425 3.18657,7.12018 3.48394,8.62143 4.44909,16.88752 0.35111,3.0073 2.62663,3.91625 5.44398,3.17409 2.87258,-0.75674 4.50198,-2.7235 3.17294,-5.44396 -3.52437,-7.21424 -4.74825,-8.38825 -4.44793,-16.88753 0.0787,-2.22654 -1.46183,-3.27676 -3.42515,-3.34958 z m 137.66747,1.93048 c -1.83587,0.0414 -3.22583,1.07092 -3.48908,3.28336 -0.92191,7.74603 -1.43821,9.18732 -4.85472,16.77594 -1.24298,2.76085 0.24344,4.70849 3.04278,5.51837 2.85349,0.82573 5.2618,-0.0247 5.51835,-3.04162 0.68034,-8.00023 0.23249,-9.63586 4.85473,-16.77478 1.61444,-2.49359 -0.31397,-4.67013 -3.11252,-5.47999 -0.68595,-0.1986 -1.34756,-0.29509 -1.95954,-0.28128 z m -83.07887,22.42681 c -1.85564,-0.001 -3.34115,1.48235 -3.34263,3.33796 l -0.0209,25.83918 c -0.001,1.85485 1.48229,3.34103 3.33682,3.34379 h 0.001 c 6.35456,-0.36707 12.76041,-0.43009 19.25036,0.0158 1.85564,0.002 3.34114,-1.48119 3.34263,-3.33683 l 0.001,-0.97514 c 0.002,-1.85563 -1.48236,-3.34111 -3.338,-3.34262 l -14.70595,-0.0113 0.005,-5.3359 13.954,0.009 c 1.85563,0.001 3.34111,-1.48121 3.34262,-3.33682 l 10e-4,-0.97514 c 0.002,-1.85564 -1.48235,-3.34112 -3.33799,-3.34263 l -13.95398,-0.009 0.005,-4.26779 14.70597,0.0112 c 1.85563,0.002 3.34114,-1.48235 3.34262,-3.33799 l 0.001,-0.92746 c 10e-4,-1.85564 -1.48116,-3.34113 -3.33682,-3.34264 z m 29.53512,0.26267 c -1.08469,-0.0636 -2.23769,0.2456 -3.0172,1.11923 -0.72707,0.83421 -0.9881,2.01595 -0.63227,3.1439 l 8.04861,27.23503 c 0.38228,1.27224 1.40946,2.11907 2.75916,2.3582 l 1.42376,0.20107 c 1.26039,0.17835 2.58475,-0.38464 3.25896,-1.50744 l 15.33126,-23.92726 c 0.60876,-0.99149 0.68573,-2.1989 0.21839,-3.20202 -0.46068,-1.04906 -1.32442,-1.57783 -2.58718,-1.91188 v -0.001 c -0.40609,-0.081 -0.71901,-0.14282 -1.24013,-0.17431 -1.29658,-0.0785 -2.58414,0.383 -3.30427,1.49929 l -10.65088,16.67251 -5.61018,-18.97259 c -0.33635,-1.26574 -1.45037,-2.04495 -2.7127,-2.35124 -0.44792,-0.10863 -0.87125,-0.15698 -1.28544,-0.18127 z m -51.21924,0.95188 c -1.04259,-0.0234 -2.11019,0.0391 -3.202,0.18712 l -8.68898,1.17736 c -1.83886,0.24911 -3.11059,1.91872 -2.86146,3.75756 l 3.46932,25.60671 c 0.24911,1.83883 1.91872,3.11056 3.75755,2.86145 l 8.68899,-1.17735 c 4.36724,-0.59167 8.00189,-2.44198 10.77291,-5.48584 2.85051,-3.14823 4.05391,-7.05611 3.48093,-11.28544 l -0.42422,-3.12647 c -0.57298,-4.22931 -2.76586,-7.63005 -6.35751,-9.95235 -2.61075,-1.64764 -5.50774,-2.49276 -8.63553,-2.56275 z m -0.38586,7.62319 c 1.73082,0.0443 3.27113,0.52896 4.65714,1.42957 1.74363,1.12142 2.68472,2.53803 2.94631,4.46886 l 0.43003,3.17178 c 0.27403,2.02272 -0.25637,3.63991 -1.63877,5.18481 -1.46189,1.6493 -3.39043,2.61346 -5.87286,2.94979 l -4.18411,0.56601 -2.31636,-17.10136 4.18294,-0.566 c 0.6206,-0.0841 1.21874,-0.11808 1.79568,-0.10346 z m -97.806905,5.5486 c -0.433423,0.009 -0.87602,0.0499 -1.32613,0.12438 -0.480225,0.0787 -0.969704,0.19814 -1.464437,0.35796 -7.916303,2.56053 -15.666099,15.20303 -12.108328,19.7548 3.557767,4.55173 17.632391,3.1e-4 21.990948,-7.11182 3.830698,-6.25101 -0.59045,-13.25815 -7.092053,-13.1253 z m 49.665305,19.89307 c -0.41109,-0.005 -0.82124,0.0256 -1.22734,0.0837 -3.24872,0.46581 -6.221578,2.86966 -7.096701,6.95143 -1.750196,8.16366 5.280481,21.22489 10.985601,20.4068 5.70509,-0.81804 8.81665,-15.33343 4.86169,-22.67902 -1.73027,-3.2137 -4.64529,-4.74284 -7.52325,-4.7629 z" />
  </g>
  <metadata
     id="metadata1">
    <rdf:RDF>
      <cc:Work
         rdf:about="">
        <dc:title>KiwifruitDevLogo</dc:title>
        <dc:creator>
          <cc:Agent>
            <dc:title>FLARE145</dc:title>
          </cc:Agent>
        </dc:creator>
      </cc:Work>
    </rdf:RDF>
  </metadata>
</svg>
