<?xml version="1.0" encoding="UTF-8" standalone="no"?>
<!-- Created with Inkscape (http://www.inkscape.org/) -->

<!-- This logo was designed by FLARE145 (http://flare145.com/) -->

<svg
   width="10in"
   height="11.450341in"
   viewBox="0 0 253.99999 290.83867"
   version="1.1"
   id="svg1"
   inkscape:version="1.3.2 (091e20e, 2023-11-25, custom)"
   sodipodi:docname="kiwifruitIcon.svg"
   xmlns:inkscape="http://www.inkscape.org/namespaces/inkscape"
   xmlns:sodipodi="http://sodipodi.sourceforge.net/DTD/sodipodi-0.dtd"
   xmlns="http://www.w3.org/2000/svg"
   xmlns:svg="http://www.w3.org/2000/svg"
   xmlns:rdf="http://www.w3.org/1999/02/22-rdf-syntax-ns#"
   xmlns:cc="http://creativecommons.org/ns#"
   xmlns:dc="http://purl.org/dc/elements/1.1/">
  <title
     id="title1">kiwifruitIcon</title>
  <sodipodi:namedview
     id="namedview1"
     pagecolor="#ffffff"
     bordercolor="#000000"
     borderopacity="0.25"
     inkscape:showpageshadow="2"
     inkscape:pageopacity="0.0"
     inkscape:pagecheckerboard="0"
     inkscape:deskcolor="#d1d1d1"
     inkscape:document-units="mm"
     inkscape:zoom="0.36569515"
     inkscape:cx="388.30157"
     inkscape:cy="168.17286"
     inkscape:window-width="1920"
     inkscape:window-height="1017"
     inkscape:window-x="1912"
     inkscape:window-y="-8"
     inkscape:window-maximized="1"
     inkscape:current-layer="layer1" />
  <defs
     id="defs1" />
  <g
     inkscape:label="Layer 1"
     inkscape:groupmode="layer"
     id="layer1"
     transform="translate(-66.845376,-75.306636)">
    <path
       id="path100"
       style="fill:#98d36b;fill-opacity:1;stroke:none;stroke-width:5.30125;stroke-linecap:square;stroke-linejoin:round;paint-order:stroke fill markers"
       inkscape:transform-center-x="1.9519534e-05"
       inkscape:transform-center-y="-2.4792607e-05"
       d="m 193.84543,75.306636 c -11.56852,0 -21.85109,27.844494 -16.06677,43.505424 5.78421,15.66093 26.34922,15.66093 32.13343,0 5.78432,-15.66093 -4.49814,-43.505424 -16.06666,-43.505424 z m 50.73184,43.224724 c -16.19327,-0.85535 -31.75746,24.80134 -50.75526,24.80768 -21.7117,0.007 -38.9661,-33.48897 -57.76545,-22.62678 -18.79934,10.86207 1.60603,42.53705 -9.24371,61.34364 -10.84962,18.80658 -48.482253,16.99927 -48.475012,38.71108 0.0074,21.7117 37.636362,19.87656 48.498432,38.6759 10.86219,18.79935 -9.51615,50.48825 9.29044,61.33787 18.80658,10.84963 36.03033,-22.65461 57.74214,-22.66185 21.7117,-0.007 38.96611,33.48297 57.76545,22.6209 18.79935,-10.86219 -1.60603,-42.53129 9.2436,-61.33787 10.84962,-18.80647 48.48225,-16.99916 48.47501,-38.71098 -0.007,-21.71181 -37.63636,-19.88244 -48.49832,-38.68189 -10.86218,-18.79923 9.51604,-50.48225 -9.29055,-61.33188 -2.35072,-1.35621 -4.6735,-2.02352 -6.98677,-2.14582 z M 82.10316,142.7076 c -6.552204,-0.0905 -12.026742,1.55173 -14.195875,5.30879 -5.784205,10.01861 13.187905,32.84372 29.642861,35.66489 16.454844,2.82116 26.737404,-14.9847 16.066654,-27.82447 -6.66908,-8.02484 -20.593413,-12.99737 -31.51364,-13.14921 z m 223.49043,0 c -10.92045,0.15161 -24.85056,5.12437 -31.51964,13.14921 -10.67075,12.83977 -0.38807,30.64563 16.06666,27.82447 16.45495,-2.82117 35.42717,-25.64628 29.64286,-35.66489 -2.16914,-3.75695 -7.63779,-5.39998 -14.18988,-5.30879 z m -76.81993,7.65329 c 1.5928,0.0792 3.19905,0.53968 4.81764,1.47343 12.94918,7.47034 -1.08841,29.29235 6.39042,42.23655 7.47916,12.9442 33.39144,11.68223 33.39653,26.63174 0.005,14.9495 -25.90854,13.70609 -33.379,26.65515 -7.47045,12.94918 6.57721,34.75173 -6.36699,42.23078 -12.9442,7.47906 -24.81979,-15.5806 -39.7694,-15.57562 -14.9494,0.005 -26.80846,23.07527 -39.75753,15.60481 -12.94906,-7.47045 1.08276,-29.28658 -6.3963,-42.23078 -7.47905,-12.94409 -33.39143,-11.68223 -33.39641,-26.63173 -0.005,-14.94951 25.90842,-13.70598 33.37888,-26.65516 7.47045,-12.94906 -6.5771,-34.7575 6.3671,-42.23655 12.94398,-7.47905 24.81979,15.58061 39.76918,15.57563 13.08088,-0.004 23.79598,-17.66726 34.94588,-17.07825 z M 100.56127,257.47842 c -0.976402,0.0226 -1.982789,0.11541 -3.011124,0.29191 -16.454956,2.82116 -35.427066,25.64628 -29.642861,35.66488 5.784317,10.01861 35.038875,5.00523 45.709635,-7.83465 10.00367,-12.03726 1.59336,-28.44334 -13.05565,-28.12259 z m 186.56832,0 c -14.649,-0.32132 -23.05943,16.08533 -13.05564,28.12271 10.67064,12.83977 39.9252,17.85314 45.70952,7.83454 5.7842,-10.01861 -13.18791,-32.84373 -29.64286,-35.66489 -1.02845,-0.1765 -2.03439,-0.27041 -3.01102,-0.2919 z m -93.28427,53.41553 c -6.58762,0 -13.17456,3.91558 -16.06666,11.74604 -5.7842,15.66094 4.49825,43.50536 16.06677,43.50536 11.56852,0 21.85098,-27.84442 16.06677,-43.50536 -2.89221,-7.83046 -9.47926,-11.74604 -16.06688,-11.74604 z"
       inkscape:export-filename="STARBURST.png"
       inkscape:export-xdpi="300"
       inkscape:export-ydpi="300" />
  </g>
  <metadata
     id="metadata1">
    <rdf:RDF>
      <cc:Work
         rdf:about="">
        <dc:creator>
          <cc:Agent>
            <dc:title>FLARE145</dc:title>
          </cc:Agent>
        </dc:creator>
        <dc:title>kiwifruitIcon</dc:title>
      </cc:Work>
    </rdf:RDF>
  </metadata>
</svg>
